{
  "asset" : {
    "generator" : "UE Viewer (umodel) build 1579 based fix38",
    "version" : "2.0"
  },
  "scene" : 0,
  "scenes" : [
    {
      "nodes" : [ 0 ]
    }
  ],
  "nodes" : [
    {
      "name" : "SM_Beam_inner",
      "mesh" : 0
    }
  ],
  "materials" : [
    {
      "name" : "dummy_material_0",
      "pbrMetallicRoughness" : {
        "baseColorFactor" : [ 0.3, 0.3, 0.3, 1.0 ],
        "metallicFactor" : 0.1,
        "roughnessFactor" : 0.5
      }
    }
  ],
  "meshes" : [
    {
      "primitives" : [
        {
          "attributes" : {
            "POSITION" : 1,
            "NORMAL" : 2,
            "TANGENT" : 3,
            "TEXCOORD_0" : 4,
            "TEXCOORD_1" : 5
          },
          "indices" : 0,
          "material" : 0
        }
      ],
      "name" : "SM_Beam_inner"
    }
  ],
  "buffers" : [
    {
      "uri" : "SM_Beam_inner.bin",
      "byteLength" : 49488
    }
  ],
  "bufferViews" : [
    {
      "buffer" : 0,
      "byteOffset" : 0,
      "byteLength" : 8160
    },
    {
      "buffer" : 0,
      "byteOffset" : 8160,
      "byteLength" : 8856
    },
    {
      "buffer" : 0,
      "byteOffset" : 17016,
      "byteLength" : 8856
    },
    {
      "buffer" : 0,
      "byteOffset" : 25872,
      "byteLength" : 11808
    },
    {
      "buffer" : 0,
      "byteOffset" : 37680,
      "byteLength" : 5904
    },
    {
      "buffer" : 0,
      "byteOffset" : 43584,
      "byteLength" : 5904
    }
  ],
  "accessors" : [
    {
      "bufferView" : 0,
      "componentType" : 5123,
      "count" : 4080,
      "type" : "SCALAR"
    },
    {
      "bufferView" : 1,
      "min" : [ -0.595989, -5.82988e-20, -0.595989 ],
      "max" : [ 0.595988, 4.0706, 0.595989 ],
      "componentType" : 5126,
      "count" : 738,
      "type" : "VEC3"
    },
    {
      "bufferView" : 2,
      "componentType" : 5126,
      "count" : 738,
      "type" : "VEC3"
    },
    {
      "bufferView" : 3,
      "componentType" : 5126,
      "count" : 738,
      "type" : "VEC4"
    },
    {
      "bufferView" : 4,
      "componentType" : 5126,
      "count" : 738,
      "type" : "VEC2"
    },
    {
      "bufferView" : 5,
      "componentType" : 5126,
      "count" : 738,
      "type" : "VEC2"
    }
  ]
}
